# Blender v2.82 (sub 7) OBJ File: 'RV.blend'
# www.blender.org
mtllib IA1.mtl
v -0.186982 0.841466 -5.756434
v -0.186982 0.624694 -6.080858
v -0.186982 0.300270 -6.297631
v -0.186982 -0.465097 -6.297631
v -0.186982 -0.789520 -6.080858
v -0.186982 -1.006293 -5.756434
v -0.186982 0.917587 -5.373751
v 0.176971 0.841466 -5.492007
v 0.485516 0.624694 -5.592259
v 0.691679 0.300270 -5.659245
v 0.691679 -0.465097 -5.659245
v 0.485516 -0.789520 -5.592259
v 0.176971 -1.006293 -5.492007
v 0.037953 0.841466 -5.064154
v 0.228645 0.624694 -4.801690
v 0.356061 0.300270 -4.626317
v 0.356061 -0.465097 -4.626317
v 0.228645 -0.789520 -4.801690
v 0.037953 -1.006293 -5.064154
v -0.411918 0.841466 -5.064154
v -0.602609 0.624694 -4.801690
v -0.730025 0.300270 -4.626317
v -0.730025 -0.465097 -4.626317
v -0.602609 -0.789520 -4.801690
v -0.411918 -1.006293 -5.064154
v -0.550936 0.841466 -5.492007
v -0.859481 0.624694 -5.592259
v -1.065644 0.300270 -5.659246
v -1.065644 -0.465097 -5.659246
v -0.859481 -0.789520 -5.592259
v -0.550936 -1.006293 -5.492007
v -0.186982 -1.082413 -5.373751
v -0.186982 0.081352 -6.006563
v -0.186982 -0.082413 -6.058702
v -0.186982 -0.246178 -6.006563
v 0.515955 0.081352 -5.569301
v 0.573871 -0.082413 -5.585413
v 0.515955 -0.246178 -5.569301
v 0.247457 0.081352 -4.861796
v 0.283251 -0.082413 -4.819615
v 0.247457 -0.246178 -4.861796
v -0.621421 0.081352 -4.861796
v -0.657215 -0.082413 -4.819615
v -0.621421 -0.246178 -4.861796
v -0.889919 0.081352 -5.569301
v -0.947836 -0.082413 -5.585413
v -0.889919 -0.246178 -5.569301
vt 0.254847 0.935936
vt 0.247985 0.905156
vt 0.299668 0.901487
vt 0.302497 0.936559
vt 0.096942 0.823695
vt 0.188212 0.829023
vt 0.182000 0.842300
vt 0.112058 0.852873
vt 0.243761 0.811793
vt 0.244000 0.794805
vt 0.293517 0.795011
vt 0.293907 0.813341
vt 0.115259 0.733084
vt 0.115259 0.701724
vt 0.145084 0.711415
vt 0.174991 0.701724
vt 0.193424 0.676354
vt 0.204816 0.711415
vt 0.248975 0.905400
vt 0.249807 0.888611
vt 0.298359 0.881401
vt 0.299151 0.901838
vt 0.248756 0.878483
vt 0.196235 0.882915
vt 0.185486 0.871264
vt 0.244530 0.860030
vt 0.243384 0.795229
vt 0.240311 0.761138
vt 0.287976 0.763592
vt 0.294822 0.795443
vt 0.174991 0.733084
vt 0.355257 0.884274
vt 0.355511 0.907585
vt 0.298896 0.871038
vt 0.301235 0.860897
vt 0.333225 0.756800
vt 0.346955 0.784365
vt 0.357721 0.907406
vt 0.352393 0.945399
vt 0.357656 0.874005
vt 0.358758 0.854376
vt 0.343703 0.784346
vt 0.346850 0.800832
vt 0.133692 0.676354
vt 0.447011 0.878587
vt 0.438855 0.843627
vt 0.372293 0.733167
vt 0.406736 0.752711
vt 0.438791 0.932644
vt 0.401742 0.968177
vt 0.243749 0.823745
vt 0.293931 0.825295
vt 0.299484 0.833980
vt 0.243222 0.842154
vt 0.396951 0.750686
vt 0.422691 0.778254
vt 0.096827 0.676354
vt 0.145167 0.711415
vt 0.441781 0.888711
vt 0.434217 0.932086
vt 0.170999 0.965442
vt 0.135732 0.946608
vt 0.196606 0.912159
vt 0.209818 0.940579
vt 0.097058 0.811743
vt 0.109462 0.770132
vt 0.188775 0.793061
vt 0.188263 0.817067
vt 0.085435 0.711415
vt 0.156559 0.676354
vt 0.139996 0.945643
vt 0.122100 0.919682
vt 0.198950 0.892903
vt 0.199095 0.912199
vt 0.116870 0.910571
vt 0.116727 0.880619
vt 0.103628 0.769599
vt 0.139751 0.733166
vt 0.189928 0.754521
vt 0.186017 0.793418
vt 0.346911 0.812776
vt 0.355419 0.830747
vt 0.422807 0.790183
vt 0.431929 0.812201
vt 0.243820 0.851106
vt 0.300612 0.847375
vt 0.357029 0.842538
vt 0.438443 0.825233
vt 0.112124 0.867050
vt 0.183365 0.856936
vn 0.3743 -0.7710 -0.5152
vn -0.7658 -0.5856 0.2658
vn 0.5171 0.4755 -0.7117
vn 0.1403 0.9711 -0.1932
vn 0.1403 -0.9711 -0.1932
vn 0.5171 -0.4755 -0.7117
vn -0.4087 0.6869 -0.6009
vn 0.3743 0.7710 -0.5152
vn 0.2271 -0.9711 0.0738
vn 0.8366 -0.4755 0.2718
vn 0.4087 0.6869 -0.6009
vn 0.6056 0.7710 0.1968
vn 0.6056 -0.7710 0.1968
vn 0.7658 0.5856 0.2658
vn 0.8366 0.4755 0.2718
vn 0.2271 0.9711 0.0738
vn 0.0000 0.7324 0.6809
vn 0.0000 0.7710 0.6368
vn 0.0000 -0.7710 0.6368
vn 0.4087 -0.6869 -0.6009
vn 0.0000 0.4755 0.8797
vn 0.0000 0.9711 0.2388
vn 0.0000 -0.9711 0.2388
vn 0.0000 -0.4755 0.8797
vn -0.6056 -0.7710 0.1968
vn -0.4087 -0.6869 -0.6009
vn -0.8366 0.4755 0.2718
vn -0.2271 0.9711 0.0738
vn -0.2271 -0.9711 0.0738
vn -0.8366 -0.4755 0.2718
vn -0.7658 0.5856 0.2658
vn -0.6056 0.7710 0.1968
vn -0.5171 0.4755 -0.7117
vn -0.1403 0.9711 -0.1932
vn -0.1403 -0.9711 -0.1932
vn -0.5171 -0.4755 -0.7117
vn 0.7658 -0.5856 0.2658
vn -0.3743 0.7710 -0.5152
vn -0.3743 -0.7710 -0.5152
vn 0.0000 -0.7324 0.6809
vn 0.5099 -0.2610 -0.8197
vn 0.5099 0.2610 -0.8197
vn 0.8966 0.2836 0.3402
vn 0.8966 -0.2836 0.3402
vn 0.0000 0.2494 0.9684
vn 0.0000 -0.2494 0.9684
vn -0.8966 -0.2836 0.3402
vn -0.8966 0.2836 0.3402
vn -0.5099 0.2610 -0.8197
vn -0.5099 -0.2610 -0.8197
usemtl Material.001
s off
f 6/1/1 5/2/1 12/3/1 13/4/1
f 22/5/2 28/6/2 45/7/2 42/8/2
f 3/9/3 2/10/3 9/11/3 10/12/3
f 1/13/4 7/14/4 8/15/4
f 32/16/5 6/17/5 13/18/5
f 5/19/6 4/20/6 11/21/6 12/22/6
f 4/23/7 29/24/7 47/25/7 35/26/7
f 2/27/8 1/28/8 8/29/8 9/30/8
f 32/16/9 13/18/9 19/31/9
f 12/22/10 11/21/10 17/32/10 18/33/10
f 11/34/11 4/23/11 35/26/11 38/35/11
f 9/30/12 8/29/12 14/36/12 15/37/12
f 13/4/13 12/3/13 18/38/13 19/39/13
f 17/40/14 11/34/14 38/35/14 41/41/14
f 10/12/15 9/11/15 15/42/15 16/43/15
f 8/15/16 7/14/16 14/44/16
f 23/45/17 17/40/17 41/41/17 44/46/17
f 15/37/18 14/36/18 20/47/18 21/48/18
f 19/39/19 18/38/19 24/49/19 25/50/19
f 3/51/20 10/52/20 36/53/20 33/54/20
f 16/43/21 15/42/21 21/55/21 22/56/21
f 14/44/22 7/14/22 20/57/22
f 32/16/23 19/31/23 25/58/23
f 18/33/24 17/32/24 23/59/24 24/60/24
f 25/61/25 24/62/25 30/63/25 31/64/25
f 28/6/26 3/51/26 33/54/26 45/7/26
f 22/65/27 21/66/27 27/67/27 28/68/27
f 20/57/28 7/14/28 26/69/28
f 32/16/29 25/58/29 31/70/29
f 24/71/30 23/72/30 29/73/30 30/74/30
f 29/24/31 23/75/31 44/76/31 47/25/31
f 21/77/32 20/78/32 26/79/32 27/80/32
f 28/68/33 27/67/33 2/10/33 3/9/33
f 26/69/34 7/14/34 1/13/34
f 32/16/35 31/70/35 6/17/35
f 30/74/36 29/73/36 4/20/36 5/19/36
f 10/52/37 16/81/37 39/82/37 36/53/37
f 27/80/38 26/79/38 1/28/38 2/27/38
f 31/64/39 30/63/39 5/2/39 6/1/39
f 16/81/40 22/83/40 42/84/40 39/82/40
f 35/26/41 34/85/41 37/86/41 38/35/41
f 34/85/42 33/54/42 36/53/42 37/86/42
f 37/86/43 36/53/43 39/82/43 40/87/43
f 38/35/44 37/86/44 40/87/44 41/41/44
f 40/87/45 39/82/45 42/84/45 43/88/45
f 41/41/46 40/87/46 43/88/46 44/46/46
f 44/76/47 43/89/47 46/90/47 47/25/47
f 43/89/48 42/8/48 45/7/48 46/90/48
f 46/90/49 45/7/49 33/54/49 34/85/49
f 47/25/50 46/90/50 34/85/50 35/26/50
